<svg width="36" height="35" viewBox="0 0 36 35" fill="none" xmlns="http://www.w3.org/2000/svg">
<path d="M16.13 1.92999C16.7828 0.209067 19.2172 0.209065 19.87 1.92999L23.038 10.282C23.3188 11.0224 24.0101 11.5274 24.8008 11.5699L33.1236 12.0168C34.9105 12.1127 35.6817 14.3275 34.3408 15.5125L27.8856 21.2174C27.3393 21.7001 27.099 22.4419 27.2584 23.1532L29.2466 32.0273C29.6441 33.8014 27.6598 35.1427 26.1617 34.1125L19.1332 29.2793C18.4507 28.8099 17.5493 28.8099 16.8668 29.2793L9.83829 34.1125C8.3402 35.1427 6.35594 33.8014 6.75343 32.0273L8.74162 23.1532C8.901 22.4419 8.66069 21.7001 8.11443 21.2174L1.65924 15.5125C0.318331 14.3275 1.08948 12.1127 2.87643 12.0168L11.1992 11.5699C11.9899 11.5274 12.6812 11.0224 12.962 10.282L16.13 1.92999Z" fill="#FCB900"/>
</svg>
