<svg width="450" height="450" viewBox="0 0 450 450" fill="none" xmlns="http://www.w3.org/2000/svg">
<g clip-path="url(#clip0_20_346)">
<path d="M118.234 291.529C118.192 291.027 118.202 290.695 118.207 290.056C118.18 289.552 118.158 289.357 118.135 289.161C118.157 288.55 118.179 287.938 118.202 286.971C118.18 286.145 118.157 285.675 118.135 285.204C118.156 283.143 118.177 281.081 118.2 278.613C118.177 272.337 118.153 266.466 118.163 260.45C118.176 260.109 118.154 259.913 118.164 259.552C118.224 259.053 118.253 258.719 118.46 258.387C125.53 259.787 132.395 261.338 139.32 262.539C146.029 263.702 152.8 264.504 159.542 265.628C159.969 266.949 160.456 268.088 160.816 269.266C163.647 278.543 169.73 285.195 177.885 290.038C183.876 293.596 190.464 294.827 197.433 294.469C205.441 294.058 212.374 290.937 218.168 285.73C224.097 280.4 228.344 273.767 230.462 265.853C233.674 265.558 236.705 265.301 239.73 264.982C244.337 264.497 248.945 264.012 253.544 263.449C258.718 262.815 263.881 262.094 269.111 261.586C269.227 262.251 269.28 262.741 269.334 263.23C269.333 272.818 269.315 282.405 269.337 291.992C269.36 301.734 263.091 310.278 253.761 312.947C251.893 313.481 249.882 313.748 247.937 313.75C212.72 313.8 177.502 313.75 142.285 313.82C132.346 313.839 125.313 309.363 120.563 300.533C120.305 300.102 120.171 299.895 120.037 299.687C119.453 297.025 118.869 294.363 118.234 291.529Z" fill="#D3E2EC"/>
<path d="M266.748 324.299C273.689 324.155 280.447 324.385 287.124 323.759C293.678 323.144 299.604 320.423 304.864 316.331C309.492 312.73 313.388 308.59 315.623 303.07C315.781 302.679 316.079 302.345 316.545 301.627C319.168 303.437 321.779 305.115 324.202 307.029C324.618 307.357 324.54 308.855 324.177 309.539C320.811 315.868 316.467 321.416 310.473 325.47C304.93 329.219 298.975 332.126 292.307 333.277C290.232 333.635 288.116 333.951 286.018 333.953C243.255 333.992 200.492 334.045 157.729 333.929C149.174 333.906 141.403 331.053 134.687 325.607C134.062 325.101 133.421 324.616 132.595 323.97C177.558 324.668 222.044 324.16 266.748 324.299Z" fill="#D3E2EC"/>
<path d="M331.014 206.105C330.986 206.576 330.959 207.046 330.933 207.893C330.965 213.845 330.997 219.42 330.987 225.181C330.979 226.125 331.012 226.883 331.005 227.802C330.994 228.293 331.024 228.622 331.011 229.154C330.997 233.912 331.024 238.468 331.052 243.024C331.009 245.812 330.967 248.601 330.693 251.59C325.455 252.708 320.46 253.691 315.441 254.528C309.922 255.448 304.38 256.234 298.81 256.883C298.738 255.499 298.703 254.311 298.709 252.921C298.746 245.677 298.741 238.636 298.777 231.411C298.488 229.013 299.516 227.35 301.105 225.841C301.296 225.686 301.376 225.562 301.562 225.409C301.811 225.314 301.897 225.203 302.073 225.012C311.662 218.217 321.103 211.456 330.719 204.57C330.855 205.279 330.935 205.692 331.014 206.105Z" fill="#FCFDFD"/>
<path d="M298.847 257.078C304.38 256.234 309.922 255.448 315.441 254.528C320.46 253.691 325.455 252.708 330.652 251.791C330.843 267.644 330.843 283.496 330.843 299.723C329.703 298.957 328.703 298.317 327.735 297.631C319.232 291.605 310.724 285.585 302.249 279.521C301.256 278.811 300.446 277.845 299.412 276.758C299.095 275.898 298.918 275.277 298.764 274.462C298.751 273.227 298.714 272.186 298.719 270.949C298.737 269.418 298.713 268.082 298.689 266.747C298.71 266.09 298.732 265.433 298.747 264.538C298.739 264.3 298.662 264.154 298.689 263.98C298.687 263.338 298.657 262.871 298.67 262.237C298.688 261.139 298.664 260.207 298.685 259.104C298.711 258.462 298.693 257.992 298.716 257.411C298.788 257.225 298.818 257.152 298.847 257.078Z" fill="#D3E2EC"/>
<path d="M277.651 235.084C277.427 232.784 278.436 231.753 281.043 232.075C281.743 232.058 282.156 232.038 282.568 232.018C284.757 232.179 286.946 232.341 289.352 232.708C289.625 234.216 289.713 235.518 289.732 236.821C289.81 242.11 289.867 247.4 289.932 252.689C289.893 252.884 289.854 253.079 289.814 253.604C289.862 254.987 289.91 256.04 289.959 257.093C289.924 257.856 289.888 258.62 289.625 259.559C286.847 257.986 284.192 256.371 281.787 254.443C280.264 253.222 279.114 251.535 277.767 249.853C277.708 244.794 277.679 239.939 277.651 235.084Z" fill="#FBFCFC"/>
<path d="M277.797 250.057C279.114 251.535 280.264 253.222 281.787 254.443C284.192 256.371 286.847 257.986 289.567 259.742C289.738 264.181 289.738 268.611 289.738 273.454C286.039 273.454 282.567 273.54 279.11 273.357C278.614 273.331 277.858 272.038 277.79 271.28C277.601 269.178 277.712 267.049 277.674 264.727C277.665 259.872 277.687 255.22 277.71 250.339C277.712 250.109 277.797 250.057 277.797 250.057Z" fill="#D3E2EC"/>
<path d="M193.887 155.126C193.901 159.846 193.915 164.566 193.68 169.461C192.653 169.498 191.818 169.498 191.109 169.198C188.112 167.93 185.155 166.568 182.179 165.251C179.494 164.063 176.803 162.888 174.085 161.515C173.863 150.912 165.749 143.197 155.373 143.674C147.306 144.045 138.564 150.695 138.203 161.71C137.54 161.809 137.013 161.832 136.558 162.024C130.605 164.541 124.662 167.081 118.686 169.542C118.592 169.276 118.527 169.084 118.463 168.891C118.473 168.817 118.483 168.742 118.421 168.581C118.336 168.417 118.325 168.34 118.297 168.071C118.23 164.96 118.178 162.039 118.127 159.119C119.258 138.102 139.881 121.524 160.518 124.236C172.652 125.83 181.71 131.951 188.677 142.076C190.184 145.13 191.536 147.937 192.889 150.744C192.9 150.942 192.912 151.14 192.981 151.636C193.321 152.999 193.604 154.062 193.887 155.126Z" fill="#FBFCFC"/>
<path d="M318.463 125.437C319.83 127.245 321.197 129.052 322.724 131.091C323.999 133.158 325.113 134.992 326.228 136.827C326.228 136.827 326.231 136.847 326.237 136.856C327.607 140.945 328.972 145.025 330.396 149.445C330.638 151.271 330.822 152.757 331.005 154.244C330.983 154.443 330.96 154.642 330.952 155.19C330.934 158.768 330.903 161.997 330.684 165.227C327.436 165.664 324.377 166.1 321.317 166.537C321.292 163.754 321.175 160.967 321.258 158.187C321.831 139.136 307.582 124.448 289.732 121.862C289.084 121.769 288.421 121.778 287.438 121.724C286.913 121.727 286.716 121.743 286.319 121.709C283.317 121.664 280.516 121.669 277.531 121.617C276.457 121.598 275.565 121.637 274.472 121.626C269.452 121.567 264.634 121.535 259.816 121.551C250.403 121.581 240.989 121.637 231.408 121.628C230.776 121.61 230.312 121.646 229.645 121.635C221.95 121.617 214.457 121.646 206.791 121.618C206.011 121.599 205.406 121.637 204.599 121.629C198.865 121.561 193.333 121.567 187.802 121.501C186.155 121.481 184.511 121.257 182.865 121.127C176.413 116.525 169.201 113.941 161.327 113.436C157.852 113.214 154.339 113.579 150.892 113.559C154.239 112.854 157.537 112.267 161.037 111.723C170.187 111.71 179.134 111.655 188.227 111.641C188.572 111.654 188.771 111.625 189.172 111.632C221.91 111.669 254.445 111.67 287.139 111.751C288.361 111.889 289.425 111.948 290.662 112.054C294.931 113.13 299.026 114.159 303.186 115.296C303.568 115.494 303.886 115.583 304.296 115.79C304.731 116.076 305.075 116.244 305.496 116.455C305.573 116.499 305.75 116.494 305.817 116.623C306.156 116.834 306.429 116.916 306.772 117.129C308.27 118.083 309.697 118.904 311.124 119.726C311.124 119.726 311.216 119.896 311.373 120.026C311.819 120.284 312.108 120.41 312.397 120.537C312.412 120.684 312.488 120.783 312.777 120.993C313.338 121.385 313.748 121.619 314.158 121.853C315.486 123.103 316.813 124.353 318.297 125.498C318.453 125.394 318.463 125.437 318.463 125.437Z" fill="#F6F8F9"/>
<path d="M210.94 158.193C212.134 158.154 213.328 158.114 214.909 158.046C217.115 158.023 218.935 158.039 220.755 158.03C228.174 157.993 235.592 157.949 243.01 157.907C243.487 157.951 243.965 157.994 244.778 158.036C245.586 158.029 246.057 158.024 246.688 158.083C247.882 158.497 248.917 158.847 249.952 159.196C249.952 159.196 250.007 159.114 250.034 159.275C250.683 160.227 251.306 161.018 251.928 161.81C252.679 163.838 252.903 165.843 251.389 167.772C249.564 167.945 248.026 168.261 246.481 168.295C242.969 168.374 239.454 168.31 235.94 168.313C229.79 168.317 223.614 167.994 217.503 168.485C214.639 168.715 213.888 167.634 213.248 165.479C212.522 163.037 211.713 160.621 210.94 158.193Z" fill="#FBFCFC"/>
<path d="M210.74 158.144C211.713 160.62 212.522 163.037 213.248 165.479C213.888 167.634 214.639 168.715 217.503 168.485C223.614 167.994 229.79 168.317 235.94 168.313C239.454 168.31 242.969 168.374 246.481 168.295C248.026 168.261 249.564 167.945 251.243 167.818C250.414 169.366 249.379 170.544 247.278 170.415C245.467 170.304 244.794 172.001 243.917 173.571C243.905 174.068 243.918 174.265 243.931 174.462C243.904 174.933 243.878 175.404 243.89 176.048C243.928 179.925 243.928 183.628 243.928 187.677C241.268 187.677 238.824 187.677 236.139 187.573C235.785 187.512 235.673 187.555 235.56 187.598C235.081 187.622 234.602 187.646 233.891 187.541C233.547 187.317 233.425 187.243 233.291 187.189C233.213 183.394 233.145 179.598 233.053 175.804C232.956 171.753 231.355 170.179 227.238 170.166C220.153 170.142 213.067 170.159 205.673 170.159C205.673 166.322 205.673 162.349 205.673 158.095C207.087 158.095 208.814 158.095 210.74 158.144Z" fill="#CCDCE6"/>
<path d="M321.281 166.741C324.377 166.1 327.436 165.664 330.727 165.428C330.981 172.365 331.005 179.102 331.029 185.838C331.003 187.056 330.978 188.274 330.955 189.832C330.98 190.501 331.002 190.831 331.025 191.162C330.989 191.754 330.953 192.347 330.9 193.117C330.476 193.519 330.069 193.742 329.488 194.161C328.329 195.069 327.344 195.782 326.358 196.494C326.358 196.494 326.194 196.52 326.027 196.658C324.459 197.824 323.058 198.852 321.656 199.879C321.489 199.837 321.322 199.795 321.091 199.634C321.098 196.28 321.168 193.047 321.207 189.609C321.198 181.919 321.221 174.432 321.281 166.741Z" fill="#D3E2EC"/>
<path d="M206.121 136.728C212.391 136.7 218.662 136.671 225.127 136.604C227.957 136.567 230.403 137.093 232.269 139.147C233.944 140.991 234.785 143.05 233.667 145.812C232.648 146.537 231.779 147.375 230.903 147.381C223.951 147.431 216.996 147.324 210.04 147.095C209.433 145.462 208.797 144.011 208.233 142.532C207.5 140.609 206.823 138.664 206.121 136.728Z" fill="#FBFCFC"/>
<path d="M302.867 162.601C301.869 162.998 300.875 163.496 299.858 163.55C297.834 163.658 295.795 163.468 293.767 163.528C293.334 163.541 292.917 164.101 292.483 164.763C292.503 165.442 292.535 165.766 292.566 166.09C292.571 167.25 292.468 168.422 292.603 169.566C292.832 171.518 291.994 172.754 290.157 173.04C288.307 173.328 287.65 171.986 287.376 170.233C287.345 167.959 287.345 165.849 287.345 163.59C285.001 163.59 282.692 163.592 280.383 163.59C278.144 163.587 276.953 162.676 276.885 160.919C276.816 159.16 277.984 158.237 280.32 158.226C282.586 158.216 284.851 158.224 287.416 158.224C287.416 156.122 287.489 153.822 287.392 151.53C287.316 149.733 287.896 148.346 289.758 148.281C291.572 148.217 292.45 149.568 292.496 151.309C292.558 153.638 292.511 155.971 292.511 158.277C295.167 158.277 297.555 158.212 299.937 158.294C302.671 158.389 303.652 159.867 302.867 162.601Z" fill="#F6F8F9"/>
<path d="M205.917 136.69C206.823 138.664 207.5 140.609 208.233 142.532C208.797 144.011 209.433 145.462 209.864 147.162C207.766 147.498 205.839 147.595 203.913 147.693C202.058 144.132 200.203 140.571 198.289 136.876C200.724 136.713 203.219 136.682 205.917 136.69Z" fill="#CCDCE6"/>
<path d="M244.052 174.443C243.918 174.265 243.905 174.068 243.937 173.728C244.18 173.733 244.377 173.88 244.575 174.028C244.441 174.16 244.307 174.292 244.052 174.443Z" fill="#091B2A"/>
<path d="M297.165 125.52C297.066 125.54 297.01 125.515 296.953 125.49C297.038 125.485 297.123 125.479 297.165 125.52Z" fill="#0D2030"/>
<path d="M299.363 125.959C299.264 125.98 299.207 125.954 299.15 125.929C299.235 125.924 299.32 125.919 299.363 125.959Z" fill="#0D2030"/>
<path d="M362.131 3.21465C362.388 3.27683 362.666 3.47746 362.966 3.81653C362.71 3.75435 362.432 3.55373 362.131 3.21465Z" fill="#0D2030"/>
<path d="M250.046 197.688C254.484 198.136 258.526 199.545 262.032 202.628C262.953 203.5 263.736 204.327 264.669 205.338C264.923 205.633 265.027 205.743 265.131 205.853C265.131 205.853 265.162 205.924 265.257 206.077C266.57 209.118 267.788 212.007 268.989 215.079C269.103 218.655 269.234 222.048 269.365 225.441C269.334 226.34 269.302 227.24 269.275 228.528C269.311 231.421 269.343 233.923 269.374 236.426C269.342 236.623 269.31 236.819 269.279 237.359C269.306 239.475 269.332 241.247 269.358 243.019C269.321 243.49 269.284 243.96 269.248 244.8C269.276 246.796 269.303 248.423 269.33 250.051C269.287 251.531 269.244 253.011 269.202 254.884C269.24 257.33 269.276 259.382 269.312 261.435C269.312 261.435 269.182 261.409 269.115 261.41C263.881 262.094 258.718 262.815 253.544 263.449C248.945 264.012 244.337 264.497 239.73 264.982C236.705 265.301 233.674 265.558 230.263 265.848C228.557 265.853 227.234 265.853 225.909 265.682C227.499 260.407 227.967 255.245 226.815 249.975C223.822 236.28 215.454 227.392 201.937 224.367C188.974 221.466 177.915 225.915 169.585 236.249C162.508 245.029 161.185 255.096 163.986 265.844C162.366 265.724 160.954 265.594 159.543 265.464C152.8 264.504 146.029 263.702 139.32 262.539C132.395 261.338 125.53 259.787 118.427 258.207C118.187 257.417 118.158 256.809 118.164 256.054C118.175 255.71 118.152 255.513 118.163 255.112C118.203 246.492 118.18 238.074 118.222 229.657C118.252 223.543 117.753 217.382 119.602 211.403C120.644 209.672 121.685 207.941 122.989 206.238C127.277 210.646 131.872 214.235 137.091 217.167C145.6 221.947 154.78 222.847 164.083 221.656C175.456 220.199 184.883 214.568 192.361 205.897C194.405 203.527 196.941 201.315 197.346 197.865C197.671 197.835 197.996 197.806 198.681 197.77C201.985 197.729 204.927 197.695 208.061 197.703C209.288 197.717 210.325 197.69 211.556 197.699C212.801 197.711 213.851 197.688 215.085 197.705C216.017 197.72 216.766 197.694 217.719 197.704C226.143 197.716 234.363 197.691 242.69 197.701C242.867 197.711 242.938 197.685 243.211 197.693C245.625 197.714 247.835 197.701 250.046 197.688Z" fill="#FCFDFD"/>
<path d="M174.114 161.707C176.803 162.888 179.494 164.063 182.179 165.251C185.155 166.568 188.112 167.93 191.109 169.198C191.818 169.498 192.653 169.498 193.612 169.632C193.178 174.625 191.29 179.143 188.429 183.572C185.286 186.969 182.681 190.583 179.339 193.286C165.777 204.256 144.498 203.56 131.484 191.911C128.947 189.639 126.742 186.997 124.384 184.526C123.343 182.532 122.302 180.539 121.11 178.286C120.414 176.393 119.869 174.759 119.289 172.961C119.171 172.474 119.088 172.15 119.004 171.827C118.97 171.583 118.936 171.339 118.809 170.845C118.717 170.269 118.717 169.942 118.717 169.616C124.662 167.081 130.605 164.541 136.558 162.024C137.013 161.832 137.54 161.809 138.249 161.89C139.353 164.989 140.243 167.905 141.077 170.949C140.633 171.209 140.148 171.555 139.871 171.433C139.074 171.08 138.361 170.538 137.614 170.07C139.683 178.205 145.279 182.421 152.947 183.501C160.091 184.508 166.791 183.098 171.53 176.601C172.962 174.664 174.523 172.915 175.491 170.883C176.846 168.041 176.434 167.581 173.188 166.816C173.495 164.998 173.804 163.353 174.114 161.707Z" fill="#D3E2EC"/>
<path d="M124.852 203.641C125.676 202.959 126.44 202.41 127.204 201.861C147.417 216.857 171.446 213.978 187.131 200.484C189.788 196.999 193.46 197.75 197.142 197.82C196.941 201.315 194.405 203.527 192.361 205.897C184.883 214.568 175.456 220.199 164.083 221.656C154.78 222.847 145.6 221.947 137.091 217.167C131.872 214.235 127.277 210.646 123.134 206.174C123.608 205.314 124.2 204.545 124.852 203.641Z" fill="#C0D2DE"/>
<path d="M117.994 285.24C118.157 285.675 118.18 286.145 118.17 286.79C118.043 286.401 117.948 285.839 117.994 285.24Z" fill="#071825"/>
<path d="M118.016 289.184C118.158 289.357 118.18 289.552 118.174 289.893C118.062 289.761 117.98 289.484 118.016 289.184Z" fill="#031321"/>
<path d="M330.678 147.42C330.698 147.409 330.658 147.431 330.678 147.42Z" fill="#031321"/>
<path d="M314.146 121.69C313.748 121.619 313.338 121.385 312.873 121.016C313.256 121.096 313.695 121.312 314.146 121.69Z" fill="#102537"/>
<path d="M312.382 120.379C312.108 120.41 311.819 120.284 311.467 120.051C311.724 120.037 312.045 120.128 312.382 120.379Z" fill="#102537"/>
<path d="M119.289 172.961C119.212 173.129 119.099 173.133 118.818 173.14C118.685 172.721 118.721 172.298 118.88 171.851C119.088 172.15 119.171 172.474 119.289 172.961Z" fill="#081929"/>
<path d="M83.8035 51.0545C83.5277 51.3332 83.2174 51.4692 82.9072 51.6051C82.8569 51.4115 82.8065 51.2179 82.7562 51.0243C83.0938 50.9868 83.4315 50.9493 83.8035 51.0545Z" fill="#0E2131"/>
<path d="M68.7863 26.8006C69.0279 26.6352 69.2676 26.5946 69.5073 26.5539C69.5047 26.725 69.5021 26.8961 69.4995 27.0672C69.2611 27.0199 69.0227 26.9726 68.7863 26.8006Z" fill="#0E2131"/>
<path d="M331.158 191.158C331.002 190.831 330.98 190.501 330.989 190.008C331.022 189.845 331.191 189.852 331.325 189.946C331.546 190.153 331.656 190.234 331.789 190.284C331.623 190.574 331.458 190.865 331.158 191.158Z" fill="#061827"/>
<path d="M331.74 190.192C331.656 190.234 331.546 190.153 331.41 189.949C331.496 189.905 331.606 189.986 331.74 190.192Z" fill="#031321"/>
<path d="M159.542 265.628C160.954 265.594 162.366 265.724 164.067 265.967C165.863 268.98 167.042 272.116 168.928 274.743C180.551 290.933 203.33 292.734 217.598 278.815C221.4 275.105 223.829 270.615 225.911 265.853C227.234 265.853 228.557 265.853 230.078 265.859C228.344 273.767 224.097 280.4 218.168 285.73C212.374 290.937 205.441 294.058 197.433 294.469C190.464 294.827 183.876 293.596 177.885 290.038C169.73 285.195 163.647 278.543 160.816 269.266C160.456 268.088 159.969 266.949 159.542 265.628Z" fill="#BCCFDD"/>
<path d="M117.334 259.863C117.512 259.717 117.689 259.717 118 259.717C118.154 259.913 118.176 260.109 118.163 260.45C117.952 260.595 117.776 260.595 117.467 260.596C117.334 260.4 117.334 260.205 117.334 259.863Z" fill="#051624"/>
<path d="M276.141 234.324C276.156 234.338 276.126 234.31 276.141 234.324Z" fill="#031321"/>
<path d="M320.454 199.903C320.416 199.816 320.498 199.716 320.709 199.619C320.738 199.706 320.65 199.795 320.454 199.903Z" fill="#0B1E2D"/>
<path d="M265.141 205.724C265.027 205.743 264.923 205.633 264.785 205.414C264.885 205.401 265.019 205.498 265.141 205.724Z" fill="#091B2A"/>
<path d="M278.817 230.503C278.827 230.521 278.808 230.484 278.817 230.503Z" fill="#061827"/>
<path d="M298.685 259.104C298.564 258.718 298.488 258.161 298.544 257.563C298.693 257.992 298.711 258.462 298.685 259.104Z" fill="#031321"/>
<path d="M298.689 263.98C298.548 263.615 298.435 263.075 298.474 262.469C298.657 262.871 298.687 263.338 298.689 263.98Z" fill="#031321"/>
<path d="M299.069 164.994C298.707 164.974 298.461 164.945 298.215 164.916C298.297 164.759 298.405 164.46 298.457 164.47C298.806 164.534 299.143 164.663 299.485 164.77C299.451 164.826 299.43 164.898 299.381 164.932C299.329 164.969 299.251 164.969 299.069 164.994Z" fill="#0B1E2D"/>
<path d="M195.745 165.078C195.697 165.259 195.582 165.368 195.467 165.478C195.421 165.43 195.334 165.344 195.337 165.341C195.445 165.224 195.561 165.116 195.745 165.078Z" fill="#071825"/>
<path d="M233.286 187.323C233.425 187.243 233.547 187.317 233.714 187.502C233.607 187.548 233.444 187.502 233.286 187.323Z" fill="#F6F8F9"/>
<path d="M235.663 187.624C235.673 187.555 235.785 187.512 235.935 187.535C235.972 187.601 235.766 187.649 235.663 187.624Z" fill="#F6F8F9"/>
<path d="M167.227 111.18C174.224 111.239 181.015 111.299 187.944 111.479C179.134 111.655 170.187 111.71 161.037 111.723C160.837 111.597 160.838 111.514 160.84 111.306C162.901 111.182 164.962 111.181 167.227 111.18Z" fill="#071723"/>
<path d="M286.319 121.709C285.041 121.899 283.562 122.037 281.885 122.181C280.444 122.104 279.202 122.021 277.837 121.807C280.516 121.669 283.317 121.664 286.319 121.709Z" fill="#031321"/>
<path d="M304.296 115.79C304.582 115.813 304.96 115.954 305.378 116.253C305.075 116.244 304.731 116.076 304.296 115.79Z" fill="#091B2A"/>
<path d="M305.817 116.623C305.841 116.485 305.932 116.475 306.159 116.457C306.37 116.451 306.444 116.453 306.631 116.455C306.738 116.547 306.734 116.637 306.715 116.863C306.429 116.916 306.156 116.834 305.817 116.623Z" fill="#091B2A"/>
<path d="M227.637 134.912C227.78 134.809 227.924 134.705 228.068 134.602C228.102 134.653 228.137 134.704 228.171 134.754C228.059 134.802 227.946 134.851 227.735 134.906C227.637 134.913 227.637 134.912 227.637 134.912Z" fill="#0B1E2D"/>
<path d="M234.014 175.137C234.03 175.129 233.998 175.146 234.014 175.137Z" fill="#F6F8F9"/>
<path d="M156.935 110.835C157.02 110.794 157.132 110.877 157.27 111.084C157.185 111.126 157.074 111.043 156.935 110.835Z" fill="#0D2232"/>
<path d="M349.435 67.3259C349.418 67.1001 349.502 66.9878 349.711 66.8482C349.874 67.004 349.943 67.2112 350.012 67.4183C349.843 67.4173 349.674 67.4164 349.435 67.3259Z" fill="#0D2030"/>
<path d="M186.658 107.227C186.649 107.271 186.53 107.316 186.369 107.293C186.328 107.227 186.548 107.227 186.658 107.227Z" fill="#0D2232"/>
<path d="M352.518 51.6809C352.581 51.3001 352.68 51.0549 352.778 50.8096C352.942 50.9905 353.106 51.1713 353.271 51.3522C353.032 51.5069 352.792 51.6616 352.518 51.6809Z" fill="#0D2232"/>
<path d="M208.061 197.703C208.947 197.596 210.023 197.529 211.231 197.563C210.325 197.69 209.288 197.717 208.061 197.703Z" fill="#091B2A"/>
<path d="M215.085 197.705C215.693 197.6 216.484 197.536 217.395 197.57C216.766 197.694 216.017 197.72 215.085 197.705Z" fill="#091B2A"/>
<path d="M242.69 197.701C242.664 197.513 242.778 197.473 242.966 197.603C242.938 197.685 242.867 197.711 242.69 197.701Z" fill="#091B2A"/>
<path d="M141.077 170.949C144.008 174.582 147.52 177.376 152.293 178.351C157.525 179.42 162.284 178.303 166.889 175.423C167.134 175.439 167.184 175.443 167.235 175.447C167.209 175.351 167.183 175.255 167.156 175.158C167.156 175.158 167.194 175.118 167.384 175.168C168.393 175.12 169.213 175.023 170.033 174.926C169.929 175.1 169.826 175.273 169.722 175.446C170.279 175.851 170.837 176.257 171.395 176.662C166.791 183.098 160.091 184.508 152.947 183.501C145.279 182.421 139.683 178.205 137.614 170.07C138.361 170.538 139.074 171.08 139.871 171.433C140.148 171.555 140.633 171.209 141.077 170.949Z" fill="#BCCFDD"/>
<path d="M171.53 176.601C170.837 176.257 170.279 175.851 169.722 175.446C169.826 175.273 169.929 175.1 170.033 174.926C169.213 175.023 168.393 175.12 167.406 175.151C169.039 172.773 170.839 170.461 172.788 167.935C172.992 167.583 173.048 167.444 173.105 167.304C173.105 167.304 173.097 167.132 173.144 167.06C176.434 167.581 176.846 168.041 175.491 170.883C174.523 172.915 172.962 174.664 171.53 176.601Z" fill="#C0D2DE"/>
<path d="M125.65 190.129C125.034 190.057 124.385 189.831 123.83 189.503C124.489 189.593 125.053 189.783 125.65 190.129Z" fill="#081929"/>
<path d="M324.966 132.04C324.985 132.029 324.947 132.05 324.966 132.04Z" fill="#0B1E2D"/>
<path d="M158.89 157.677C158.134 156.709 157.249 155.892 156.995 154.912C156.483 152.932 157.089 151.098 158.897 149.984C160.544 148.969 162.261 149.23 163.776 150.394C165.396 151.64 165.976 153.85 165.218 155.677C164.424 157.589 162.956 158.45 160.911 158.245C160.279 158.182 159.667 157.924 158.89 157.677Z" fill="#F6F8F9"/>
<path d="M167.095 175.176C167.183 175.255 167.209 175.351 167.235 175.447C167.184 175.443 167.134 175.439 167.035 175.373C166.987 175.312 167.034 175.193 167.095 175.176Z" fill="#C0D2DE"/>
<path d="M172.996 167.361C173.048 167.444 172.992 167.583 172.846 167.79C172.8 167.712 172.844 167.565 172.996 167.361Z" fill="#D3E2EC"/>
<path d="M304.981 114.703C304.943 114.72 304.903 114.732 304.916 114.72C304.969 114.696 304.98 114.698 304.981 114.703Z" fill="#0C1F30"/>
<path d="M201.531 259.518C198.717 261.247 196.045 262.898 193.353 264.516C190.97 265.948 189.375 265.101 189.352 262.349C189.315 257.811 189.322 253.272 189.356 248.734C189.375 246.098 190.946 245.277 193.242 246.66C196.81 248.808 200.37 250.97 203.933 253.125C206.931 254.938 206.941 256.393 203.96 258.142C203.204 258.586 202.43 258.999 201.531 259.518Z" fill="#FBFCFC"/>
</g>
<defs>
<clipPath id="clip0_20_346">
<rect width="450" height="450" fill="white"/>
</clipPath>
</defs>
</svg>
