<svg width="120" height="120" viewBox="0 0 120 120" fill="none" xmlns="http://www.w3.org/2000/svg">
<g clip-path="url(#clip0_20_2)">
<path d="M31.529 77.7411C31.5179 77.6071 31.5205 77.5187 31.522 77.3481C31.5148 77.2138 31.5087 77.1618 31.5027 77.1097C31.5086 76.9466 31.5145 76.7835 31.5206 76.5256C31.5147 76.3053 31.5086 76.1799 31.5026 76.0544C31.5082 75.5047 31.5139 74.9549 31.52 74.2969C31.5139 72.6231 31.5075 71.0576 31.5101 69.4534C31.5136 69.3624 31.5078 69.3101 31.5105 69.2138C31.5265 69.0807 31.5341 68.9916 31.5894 68.9032C33.4747 69.2766 35.3052 69.6902 37.1521 70.0103C38.941 70.3204 40.7466 70.5343 42.5445 70.8342C42.6583 71.1865 42.7884 71.4902 42.8842 71.8043C43.6392 74.2782 45.2614 76.0521 47.4359 77.3434C49.0336 78.2922 50.7905 78.6205 52.6489 78.525C54.7844 78.4154 56.6331 77.5832 58.1781 76.1945C59.7592 74.7734 60.8918 73.0046 61.4566 70.8942C62.3132 70.8155 63.1214 70.7469 63.9279 70.662C65.1566 70.5326 66.3855 70.4032 67.6117 70.253C68.9914 70.0839 70.3683 69.8917 71.763 69.7562C71.7938 69.9335 71.8081 70.0641 71.8223 70.1948C71.8222 72.7514 71.8174 75.308 71.8233 77.8646C71.8293 80.4623 70.1577 82.7409 67.6697 83.4525C67.1715 83.595 66.6353 83.666 66.1165 83.6668C56.7252 83.68 47.3339 83.6666 37.9426 83.6852C35.2924 83.6905 33.4169 82.4968 32.1502 80.142C32.0815 80.0273 32.0456 79.9719 32.0098 79.9165C31.8541 79.2066 31.6985 78.4967 31.529 77.7411Z" fill="#D3E2EC"/>
<path d="M71.1327 86.4798C72.9838 86.4412 74.7859 86.5028 76.5665 86.3356C78.3141 86.1716 79.8943 85.4462 81.297 84.3548C82.5312 83.3946 83.5701 82.2907 84.166 80.8186C84.2082 80.7144 84.2878 80.6255 84.412 80.4338C85.1115 80.9165 85.8076 81.364 86.4539 81.8744C86.5647 81.962 86.5441 82.3613 86.4471 82.5437C85.5496 84.2314 84.3911 85.711 82.7929 86.7919C81.3145 87.7918 79.7268 88.567 77.9486 88.8739C77.3952 88.9694 76.8309 89.0536 76.2715 89.0541C64.868 89.0644 53.4644 89.0786 42.061 89.0478C39.7797 89.0416 37.7074 88.2809 35.9164 86.8285C35.75 86.6936 35.579 86.5643 35.3587 86.3921C47.3487 86.5782 59.2117 86.4425 71.1327 86.4798Z" fill="#D3E2EC"/>
<path d="M88.2705 54.9615C88.263 55.0869 88.2556 55.2123 88.2486 55.4381C88.2574 57.0252 88.2657 58.5119 88.2632 60.0483C88.2611 60.2999 88.2699 60.502 88.268 60.7472C88.2652 60.8781 88.273 60.9659 88.2696 61.1076C88.2657 62.3765 88.2731 63.5914 88.2804 64.8063C88.2692 65.5499 88.258 66.2935 88.1848 67.0905C86.788 67.3889 85.4561 67.651 84.1176 67.8742C82.6458 68.1195 81.1679 68.329 79.6828 68.5021C79.6635 68.1331 79.654 67.8162 79.6557 67.4455C79.6656 65.5139 79.6644 63.6362 79.6738 61.7096C79.5967 61.0701 79.8709 60.6267 80.2948 60.2241C80.3456 60.183 80.367 60.15 80.4165 60.1091C80.483 60.0837 80.5059 60.0541 80.5528 60.0032C83.1099 58.1911 85.6275 56.3882 88.1917 54.5519C88.2281 54.7411 88.2493 54.8513 88.2705 54.9615Z" fill="#FCFDFD"/>
<path d="M79.6926 68.5541C81.1679 68.329 82.6458 68.1195 84.1177 67.8742C85.4561 67.651 86.788 67.3889 88.1739 67.1442C88.2249 71.3717 88.2249 75.5989 88.2249 79.926C87.9207 79.7219 87.654 79.5512 87.396 79.3683C85.1285 77.7614 82.8599 76.1561 80.5996 74.539C80.3349 74.3495 80.1189 74.092 79.8432 73.8023C79.7588 73.5729 79.7114 73.4072 79.6703 73.1899C79.6669 72.8606 79.6571 72.583 79.6584 72.2532C79.6631 71.8448 79.6567 71.4886 79.6503 71.1325C79.6561 70.9573 79.6619 70.7821 79.6657 70.5435C79.6639 70.4801 79.6432 70.4412 79.6504 70.3947C79.6498 70.2235 79.642 70.0989 79.6454 69.9299C79.6502 69.6371 79.6437 69.3885 79.6493 69.0943C79.6564 68.9233 79.6515 68.798 79.6576 68.6429C79.6767 68.5934 79.6847 68.5738 79.6926 68.5541Z" fill="#D3E2EC"/>
<path d="M74.0403 62.689C73.9807 62.0757 74.2496 61.8007 74.9447 61.8866C75.1316 61.8822 75.2416 61.8768 75.3516 61.8714C75.9352 61.9145 76.5189 61.9576 77.1605 62.0554C77.2334 62.4575 77.2567 62.8048 77.2619 63.1523C77.2827 64.5628 77.298 65.9733 77.3153 67.3838C77.3049 67.4359 77.2944 67.4879 77.2838 67.6278C77.2965 67.9965 77.3094 68.2773 77.3223 68.5581C77.313 68.7617 77.3036 68.9653 77.2333 69.2156C76.4927 68.7963 75.7846 68.3655 75.1433 67.8515C74.7371 67.5258 74.4305 67.0761 74.0711 66.6275C74.0555 65.2783 74.0479 63.9837 74.0403 62.689Z" fill="#FBFCFC"/>
<path d="M74.0792 66.682C74.4305 67.0761 74.7371 67.5258 75.1433 67.8515C75.7846 68.3655 76.4927 68.7963 77.218 69.2647C77.2635 70.4483 77.2635 71.6296 77.2635 72.9209C76.277 72.9209 75.3513 72.9439 74.4294 72.8952C74.2971 72.8882 74.0954 72.5435 74.0772 72.3414C74.0269 71.7808 74.0566 71.2131 74.0464 70.5939C74.0441 69.2992 74.0499 68.0587 74.0561 66.757C74.0566 66.6958 74.0792 66.682 74.0792 66.682Z" fill="#D3E2EC"/>
<path d="M51.7031 41.3669C51.7068 42.6256 51.7105 43.8844 51.6479 45.1896C51.3742 45.1994 51.1514 45.1994 50.9624 45.1194C50.1632 44.7815 49.3748 44.4183 48.5812 44.0671C47.8651 43.7501 47.1474 43.4368 46.4226 43.0706C46.3635 40.2431 44.1998 38.186 41.4328 38.3132C39.2815 38.4121 36.9503 40.1853 36.8541 43.1228C36.6773 43.1491 36.5368 43.1551 36.4154 43.2065C34.8279 43.8776 33.2432 44.5551 31.6497 45.2113C31.6244 45.1403 31.6072 45.089 31.59 45.0377C31.5927 45.0178 31.5955 44.9979 31.5788 44.955C31.5563 44.9113 31.5532 44.8907 31.5459 44.8191C31.5279 43.9893 31.5142 43.2105 31.5004 42.4317C31.802 36.8271 37.3016 32.4064 42.8047 33.1296C46.0404 33.5547 48.456 35.1869 50.3139 37.887C50.7157 38.7014 51.0763 39.4499 51.437 40.1984C51.44 40.2512 51.4431 40.3039 51.4616 40.4364C51.5524 40.7997 51.6277 41.0833 51.7031 41.3669Z" fill="#FBFCFC"/>
<path d="M84.9234 33.45C85.2879 33.9319 85.6524 34.4138 86.0596 34.9577C86.3996 35.5088 86.6969 35.9979 86.9942 36.4871C86.9942 36.4871 86.995 36.4926 86.9965 36.495C87.3619 37.5854 87.7258 38.6734 88.1055 39.852C88.1702 40.339 88.2191 40.7353 88.2679 41.1317C88.262 41.1848 88.256 41.2379 88.2538 41.384C88.2492 42.3381 88.2408 43.1992 88.1823 44.0604C87.3163 44.177 86.5004 44.2934 85.6845 44.4099C85.678 43.6676 85.6466 42.9246 85.6688 42.1832C85.8216 37.1029 82.0218 33.1861 77.2617 32.4966C77.089 32.4716 76.9123 32.4741 76.65 32.4598C76.5101 32.4604 76.4576 32.4649 76.3517 32.4558C75.5513 32.4436 74.8043 32.4451 74.0083 32.4312C73.7217 32.4262 73.4841 32.4364 73.1925 32.4336C71.8538 32.4178 70.569 32.4094 69.2842 32.4135C66.774 32.4216 64.2638 32.4367 61.7088 32.4342C61.5402 32.4292 61.4164 32.439 61.2386 32.436C59.1867 32.4311 57.1886 32.4389 55.1441 32.4315C54.9363 32.4265 54.775 32.4366 54.5596 32.4345C53.0305 32.4164 51.5554 32.418 50.0805 32.4002C49.6413 32.3949 49.2028 32.3352 48.764 32.3005C47.0435 31.0733 45.1202 30.3842 43.0204 30.2497C42.0937 30.1903 41.157 30.2877 40.2379 30.2824C41.1303 30.0944 42.0098 29.9379 42.9433 29.7927C45.3831 29.7894 47.7689 29.7746 50.1938 29.771C50.2858 29.7743 50.3389 29.7665 50.446 29.7684C59.176 29.7784 67.8519 29.7787 76.5703 29.8003C76.8963 29.8371 77.1799 29.8527 77.5098 29.8811C78.6483 30.1681 79.7403 30.4424 80.8495 30.7456C80.9515 30.7984 81.0363 30.8222 81.1456 30.8773C81.2616 30.9535 81.3532 30.9983 81.4654 31.0548C81.486 31.0665 81.5334 31.0651 81.5512 31.0995C81.6417 31.1557 81.7143 31.1775 81.806 31.2345C82.2054 31.4887 82.5858 31.7078 82.9662 31.927C82.9662 31.927 82.991 31.9722 83.0329 32.007C83.1518 32.0756 83.2289 32.1095 83.3059 32.1433C83.3097 32.1824 83.33 32.2089 83.4072 32.2648C83.5569 32.3694 83.6662 32.4318 83.7755 32.4942C84.1295 32.8275 84.4836 33.1607 84.8792 33.4662C84.9209 33.4385 84.9234 33.45 84.9234 33.45Z" fill="#F6F8F9"/>
<path d="M56.2505 42.1848C56.569 42.1743 56.8874 42.1637 57.309 42.1457C57.8974 42.1394 58.3827 42.1438 58.868 42.1414C60.8462 42.1316 62.8245 42.1197 64.8028 42.1087C64.93 42.1202 65.0572 42.1318 65.274 42.1429C65.4895 42.1411 65.6153 42.1397 65.7836 42.1555C66.1019 42.2658 66.3779 42.3591 66.6539 42.4523C66.6539 42.4523 66.6686 42.4304 66.6758 42.4733C66.8489 42.7273 67.0148 42.9383 67.1807 43.1493C67.3811 43.69 67.4408 44.2248 67.0371 44.7392C66.5503 44.7854 66.1402 44.8695 65.7284 44.8787C64.7918 44.8997 63.8544 44.8826 62.9173 44.8834C61.2774 44.8846 59.6303 44.7983 58.0008 44.9293C57.237 44.9908 57.0368 44.7024 56.866 44.1276C56.6726 43.4765 56.4567 42.8321 56.2505 42.1848Z" fill="#FBFCFC"/>
<path d="M56.1973 42.1718C56.4567 42.8321 56.6726 43.4765 56.866 44.1276C57.0368 44.7024 57.237 44.9907 58.0008 44.9293C59.6304 44.7983 61.2774 44.8846 62.9173 44.8834C63.8544 44.8826 64.7918 44.8997 65.7284 44.8787C66.1402 44.8695 66.5504 44.7854 66.9981 44.7516C66.7769 45.1643 66.5011 45.4785 65.9407 45.444C65.4579 45.4143 65.2783 45.8668 65.0446 46.2855C65.0413 46.418 65.0447 46.4706 65.0482 46.5232C65.0412 46.6488 65.0342 46.7743 65.0374 46.9461C65.0476 47.9799 65.0476 48.9675 65.0476 50.0471C64.3382 50.0471 63.6863 50.0471 62.9703 50.0195C62.8761 50.0033 62.8461 50.0147 62.816 50.0261C62.6883 50.0326 62.5606 50.0391 62.3708 50.0108C62.2793 49.9512 62.2467 49.9315 62.211 49.917C62.1901 48.905 62.1719 47.8929 62.1476 46.881C62.1216 45.8008 61.6947 45.3812 60.5969 45.3775C58.7074 45.3712 56.8179 45.3758 54.8461 45.3758C54.8461 44.3524 54.8461 43.293 54.8461 42.1587C55.2232 42.1587 55.6836 42.1587 56.1973 42.1718Z" fill="#CCDCE6"/>
<path d="M85.6749 44.4644C86.5004 44.2934 87.3163 44.177 88.1938 44.1141C88.2617 45.9641 88.268 47.7605 88.2743 49.5569C88.2676 49.8817 88.2608 50.2065 88.2546 50.6217C88.2612 50.8003 88.2673 50.8884 88.2733 50.9765C88.2637 51.1345 88.2541 51.2925 88.24 51.4979C88.1269 51.6049 88.0183 51.6646 87.8635 51.7764C87.5545 52.0185 87.2916 52.2085 87.0287 52.3984C87.0287 52.3984 86.9849 52.4053 86.9405 52.4421C86.5224 52.753 86.1487 53.0271 85.775 53.3012C85.7304 53.2899 85.6859 53.2787 85.6243 53.2356C85.626 52.3414 85.6448 51.4791 85.6552 50.5624C85.6529 48.5117 85.6591 46.5153 85.6749 44.4644Z" fill="#D3E2EC"/>
<path d="M54.9656 36.4609C56.6377 36.4532 58.3097 36.4456 60.0338 36.4278C60.7884 36.4178 61.4407 36.558 61.9383 37.1058C62.385 37.5975 62.6094 38.1465 62.3112 38.8833C62.0396 39.0767 61.8077 39.2999 61.5742 39.3016C59.7201 39.3151 57.8657 39.2864 56.0105 39.2253C55.8487 38.7897 55.6793 38.4028 55.5289 38.0086C55.3332 37.4957 55.1527 36.9771 54.9656 36.4609Z" fill="#FBFCFC"/>
<path d="M80.7644 43.3602C80.4984 43.466 80.2333 43.599 79.962 43.6135C79.4223 43.6422 78.8787 43.5914 78.3377 43.6076C78.2223 43.6111 78.1113 43.7603 77.9953 43.9369C78.0008 44.1179 78.0092 44.2043 78.0176 44.2907C78.0188 44.5999 77.9915 44.9125 78.0274 45.2177C78.0886 45.7382 77.865 46.0678 77.3753 46.1441C76.8819 46.2209 76.7067 45.8628 76.6336 45.3954C76.6253 44.789 76.6253 44.2263 76.6253 43.624C76.0002 43.624 75.3845 43.6246 74.7687 43.6239C74.1718 43.6232 73.8542 43.3802 73.8359 42.9118C73.8175 42.4427 74.1289 42.1964 74.7521 42.1937C75.3562 42.191 75.9603 42.1931 76.6441 42.1931C76.6441 41.6326 76.6638 41.0193 76.6378 40.408C76.6175 39.9288 76.7721 39.5589 77.2687 39.5415C77.7524 39.5245 77.9866 39.8847 77.9989 40.3489C78.0154 40.9702 78.003 41.5922 78.003 42.2072C78.7112 42.2072 79.3479 42.1898 79.9833 42.2118C80.7122 42.2371 80.9738 42.6313 80.7644 43.3602Z" fill="#F6F8F9"/>
<path d="M54.9113 36.4507C55.1527 36.977 55.3332 37.4957 55.5289 38.0086C55.6793 38.4028 55.8488 38.7897 55.9638 39.2433C55.4042 39.3327 54.8905 39.3587 54.3768 39.3847C53.8822 38.4352 53.3876 37.4856 52.877 36.5004C53.5264 36.4567 54.1916 36.4486 54.9113 36.4507Z" fill="#CCDCE6"/>
<path d="M65.0805 46.5182C65.0447 46.4706 65.0413 46.418 65.0498 46.3275C65.1146 46.3288 65.1673 46.3681 65.2201 46.4074C65.1843 46.4427 65.1486 46.4779 65.0805 46.5182Z" fill="#091B2A"/>
<path d="M79.2441 33.4719C79.2177 33.4773 79.2026 33.4706 79.1874 33.4639C79.2101 33.4625 79.2327 33.4612 79.2441 33.4719Z" fill="#0D2030"/>
<path d="M79.8302 33.5892C79.8037 33.5946 79.7885 33.5879 79.7734 33.5812C79.7961 33.5798 79.8188 33.5784 79.8302 33.5892Z" fill="#0D2030"/>
<path d="M96.5684 0.857241C96.6367 0.873821 96.7109 0.927322 96.791 1.01774C96.7226 1.00116 96.6484 0.94766 96.5684 0.857241Z" fill="#0D2030"/>
<path d="M66.6788 52.7168C67.8625 52.8361 68.9402 53.2121 69.8753 54.0341C70.1208 54.2666 70.3297 54.4871 70.5784 54.7569C70.646 54.8355 70.6737 54.8649 70.7015 54.8942C70.7015 54.8942 70.7098 54.9131 70.7351 54.9538C71.0853 55.7648 71.4102 56.5351 71.7305 57.3543C71.7608 58.3081 71.7958 59.2129 71.8308 60.1176C71.8223 60.3575 71.8138 60.5973 71.8067 60.9409C71.8163 61.7122 71.8247 62.3796 71.8331 63.047C71.8246 63.0994 71.8161 63.1518 71.8077 63.2958C71.8148 63.8599 71.8218 64.3324 71.8288 64.805C71.8189 64.9305 71.809 65.0561 71.7994 65.28C71.8069 65.8123 71.814 66.2462 71.8212 66.6802C71.8098 67.0749 71.7983 67.4696 71.7872 67.9691C71.7973 68.6212 71.8069 69.1686 71.8166 69.7159C71.8166 69.7159 71.7818 69.7092 71.7641 69.7094C70.3683 69.8917 68.9914 70.0839 67.6117 70.253C66.3854 70.4032 65.1566 70.5326 63.9279 70.662C63.1214 70.7469 62.3132 70.8155 61.4034 70.8928C60.9484 70.8942 60.5957 70.8942 60.2423 70.8484C60.6664 69.4419 60.7911 68.0653 60.484 66.66C59.6859 63.0081 57.4545 60.6378 53.8498 59.8311C50.3931 59.0576 47.4439 60.2441 45.2227 62.9997C43.3355 65.3409 42.9827 68.0257 43.7296 70.8918C43.2975 70.8597 42.9212 70.8251 42.5448 70.7905C40.7465 70.5343 38.9409 70.3204 37.152 70.0103C35.3052 69.6902 33.4746 69.2766 31.5805 68.8552C31.5164 68.6445 31.5087 68.4823 31.5103 68.2811C31.5133 68.1894 31.5072 68.1367 31.5102 68.0299C31.5207 65.7311 31.5147 63.4864 31.5257 61.2419C31.5338 59.6114 31.4008 57.9686 31.8939 56.3741C32.1716 55.9125 32.4493 55.4508 32.7971 54.9967C33.9406 56.1722 35.1659 57.1293 36.5576 57.9111C38.8267 59.1858 41.2747 59.426 43.7554 59.1082C46.7882 58.7196 49.3022 57.2181 51.2964 54.9058C51.8414 54.2738 52.5176 53.6839 52.6255 52.7639C52.7122 52.7561 52.7989 52.7483 52.9817 52.7385C53.8625 52.7277 54.6473 52.7188 55.4829 52.7208C55.8102 52.7245 56.0867 52.7173 56.4149 52.7197C56.7468 52.7229 57.0269 52.7167 57.3559 52.7213C57.6046 52.7253 57.8043 52.7184 58.0585 52.721C60.3049 52.7242 62.4969 52.7176 64.7173 52.7204C64.7645 52.7228 64.7833 52.7161 64.8563 52.7182C65.5 52.7236 66.0894 52.7202 66.6788 52.7168Z" fill="#FCFDFD"/>
<path d="M46.4304 43.1219C47.1474 43.4368 47.8651 43.7501 48.5812 44.0671C49.3748 44.4183 50.1633 44.7815 50.9624 45.1194C51.1515 45.1994 51.3743 45.1994 51.6298 45.2351C51.5142 46.5666 51.0108 47.7716 50.2477 48.9526C49.4097 49.8585 48.7149 50.8221 47.8237 51.543C44.2072 54.4684 38.5328 54.2825 35.0625 51.1761C34.3859 50.5705 33.7979 49.8659 33.169 49.207C32.8915 48.6753 32.6139 48.1436 32.296 47.543C32.1103 47.0382 31.9651 46.6024 31.8104 46.1229C31.7789 45.993 31.7567 45.9068 31.7345 45.8206C31.7254 45.7555 31.7162 45.6904 31.6824 45.5586C31.6578 45.405 31.6578 45.3179 31.6578 45.2309C33.2432 44.5551 34.828 43.8776 36.4154 43.2065C36.5368 43.1551 36.6773 43.1491 36.8664 43.1707C37.1609 43.997 37.3981 44.7746 37.6207 45.5863C37.5022 45.6557 37.3729 45.7481 37.299 45.7154C37.0864 45.6213 36.8962 45.4767 36.6972 45.3519C37.2488 47.5213 38.741 48.6455 40.7859 48.9336C42.6909 49.202 44.4775 48.826 45.7413 47.0935C46.1232 46.577 46.5395 46.1106 46.7977 45.5688C47.159 44.8109 47.0492 44.6883 46.1835 44.4842C46.2653 43.9995 46.3479 43.5607 46.4304 43.1219Z" fill="#D3E2EC"/>
<path d="M33.294 54.3043C33.5136 54.1223 33.7174 53.9761 33.921 53.8297C39.3111 57.8286 45.7188 57.0609 49.9017 53.4625C50.6102 52.5331 51.5893 52.7333 52.5713 52.7519C52.5176 53.6839 51.8415 54.2738 51.2964 54.9058C49.3023 57.218 46.7883 58.7196 43.7554 59.1082C41.2748 59.4259 38.8267 59.1858 36.5577 57.9111C35.1659 57.1293 33.9406 56.1722 32.8356 54.9798C32.9621 54.7504 33.1201 54.5453 33.294 54.3043Z" fill="#C0D2DE"/>
<path d="M31.4651 76.0641C31.5086 76.1799 31.5147 76.3053 31.512 76.4772C31.4781 76.3737 31.4528 76.2237 31.4651 76.0641Z" fill="#071825"/>
<path d="M31.4709 77.1157C31.5087 77.1618 31.5148 77.2138 31.513 77.3047C31.4833 77.2696 31.4613 77.1956 31.4709 77.1157Z" fill="#031321"/>
<path d="M88.1807 39.312C88.186 39.3091 88.1755 39.3149 88.1807 39.312Z" fill="#031321"/>
<path d="M83.7722 32.4508C83.6662 32.4318 83.5569 32.3694 83.4327 32.2709C83.5349 32.2923 83.6519 32.3498 83.7722 32.4508Z" fill="#102537"/>
<path d="M83.3018 32.101C83.2289 32.1095 83.1518 32.0756 83.0578 32.0136C83.1265 32.0098 83.212 32.0342 83.3018 32.101Z" fill="#102537"/>
<path d="M31.8104 46.1229C31.7898 46.1677 31.7599 46.1688 31.6849 46.1707C31.6494 46.0589 31.6589 45.9461 31.7014 45.827C31.7567 45.9068 31.7789 45.993 31.8104 46.1229Z" fill="#081929"/>
<path d="M22.3476 13.6145C22.274 13.6889 22.1913 13.7251 22.1086 13.7614C22.0951 13.7097 22.0817 13.6581 22.0683 13.6065C22.1583 13.5965 22.2484 13.5865 22.3476 13.6145Z" fill="#0E2131"/>
<path d="M18.343 7.14683C18.4074 7.10273 18.4714 7.09189 18.5353 7.08105C18.5346 7.12667 18.5339 7.17229 18.5332 7.21791C18.4696 7.2053 18.4061 7.1927 18.343 7.14683Z" fill="#0E2131"/>
<path d="M88.3089 50.9756C88.2673 50.8884 88.2612 50.8003 88.2638 50.6687C88.2725 50.6252 88.3176 50.6272 88.3533 50.6522C88.4122 50.7074 88.4415 50.7291 88.4771 50.7423C88.4329 50.8197 88.3887 50.8972 88.3089 50.9756Z" fill="#061827"/>
<path d="M88.464 50.7179C88.4415 50.7291 88.4122 50.7074 88.3759 50.6531C88.3988 50.6413 88.4282 50.6628 88.464 50.7179Z" fill="#031321"/>
<path d="M42.5445 70.8342C42.9212 70.8251 43.2976 70.8597 43.7513 70.9244C44.2302 71.7281 44.5445 72.5642 45.0475 73.2649C48.147 77.5821 54.2213 78.0625 58.0261 74.3506C59.0401 73.3613 59.6878 72.1639 60.243 70.8942C60.5957 70.8942 60.9485 70.8942 61.3543 70.8957C60.8918 73.0046 59.7592 74.7734 58.1781 76.1945C56.6331 77.5832 54.7844 78.4154 52.6489 78.5251C50.7905 78.6205 49.0336 78.2922 47.4359 77.3434C45.2614 76.0521 43.6392 74.2783 42.8842 71.8043C42.7884 71.4902 42.6583 71.1865 42.5445 70.8342Z" fill="#BCCFDD"/>
<path d="M31.2891 69.2969C31.3364 69.2578 31.3838 69.2578 31.4666 69.2578C31.5078 69.3101 31.5136 69.3624 31.5101 69.4534C31.4539 69.4921 31.4068 69.4921 31.3244 69.4922C31.2891 69.4401 31.2891 69.388 31.2891 69.2969Z" fill="#051624"/>
<path d="M73.6376 62.4864C73.6417 62.4902 73.6336 62.4826 73.6376 62.4864Z" fill="#031321"/>
<path d="M85.4543 53.3073C85.4443 53.2842 85.4663 53.2576 85.5223 53.2318C85.53 53.2549 85.5066 53.2786 85.4543 53.3073Z" fill="#0B1E2D"/>
<path d="M70.7044 54.8598C70.6737 54.8649 70.646 54.8355 70.6093 54.777C70.6359 54.7737 70.6716 54.7995 70.7044 54.8598Z" fill="#091B2A"/>
<path d="M74.3513 61.4674C74.354 61.4723 74.3487 61.4625 74.3513 61.4674Z" fill="#061827"/>
<path d="M79.6493 69.0943C79.617 68.9914 79.5969 68.8428 79.6116 68.6834C79.6514 68.798 79.6564 68.9233 79.6493 69.0943Z" fill="#031321"/>
<path d="M79.6505 70.3947C79.6129 70.2972 79.5826 70.1533 79.5932 69.9918C79.642 70.0989 79.6499 70.2235 79.6505 70.3947Z" fill="#031321"/>
<path d="M79.7518 43.9984C79.6553 43.993 79.5897 43.9853 79.524 43.9775C79.5459 43.9358 79.5746 43.8561 79.5885 43.8586C79.6816 43.8756 79.7716 43.91 79.8625 43.9388C79.8536 43.9536 79.8479 43.9729 79.835 43.9819C79.821 43.9917 79.8003 43.9918 79.7518 43.9984Z" fill="#0B1E2D"/>
<path d="M52.1986 44.0207C52.186 44.069 52.1552 44.0983 52.1245 44.1275C52.1124 44.1148 52.0891 44.0916 52.0898 44.0908C52.1187 44.0598 52.1497 44.0309 52.1986 44.0207Z" fill="#071825"/>
<path d="M62.2095 49.9527C62.2467 49.9315 62.2793 49.9512 62.3238 50.0004C62.2952 50.0127 62.2516 50.0006 62.2095 49.9527Z" fill="#F6F8F9"/>
<path d="M62.8434 50.0329C62.8461 50.0147 62.8761 50.0033 62.916 50.0094C62.9259 50.0269 62.8709 50.0398 62.8434 50.0329Z" fill="#F6F8F9"/>
<path d="M44.5939 29.648C46.4597 29.6637 48.2707 29.6797 50.1183 29.7278C47.769 29.7746 45.3832 29.7894 42.9433 29.7927C42.8898 29.7592 42.8902 29.7371 42.8906 29.6817C43.4402 29.6484 43.9897 29.6484 44.5939 29.648Z" fill="#071723"/>
<path d="M76.3517 32.4558C76.0109 32.5064 75.6166 32.5433 75.1694 32.5817C74.7851 32.561 74.4538 32.539 74.0899 32.4817C74.8043 32.4451 75.5513 32.4436 76.3517 32.4558Z" fill="#031321"/>
<path d="M81.1456 30.8773C81.2219 30.8835 81.3226 30.921 81.4341 31.0008C81.3533 30.9983 81.2616 30.9535 81.1456 30.8773Z" fill="#091B2A"/>
<path d="M81.5512 31.0995C81.5576 31.0626 81.5818 31.06 81.6424 31.0553C81.6986 31.0536 81.7185 31.054 81.7682 31.0547C81.7969 31.0791 81.7957 31.1032 81.7907 31.1634C81.7143 31.1775 81.6417 31.1557 81.5512 31.0995Z" fill="#091B2A"/>
<path d="M60.7031 35.9765C60.7414 35.9489 60.7797 35.9215 60.818 35.894C60.8272 35.9075 60.8365 35.9209 60.8457 35.9344C60.8157 35.9473 60.7857 35.9602 60.7294 35.9749C60.7031 35.9767 60.7031 35.9765 60.7031 35.9765Z" fill="#0B1E2D"/>
<path d="M62.4038 46.7033C62.408 46.701 62.3996 46.7055 62.4038 46.7033Z" fill="#F6F8F9"/>
<path d="M41.8494 29.556C41.8719 29.545 41.9017 29.5672 41.9388 29.6225C41.9161 29.6337 41.8863 29.6115 41.8494 29.556Z" fill="#0D2232"/>
<path d="M93.1827 17.9536C93.1781 17.8934 93.2005 17.8634 93.2564 17.8262C93.2997 17.8677 93.3181 17.923 93.3365 17.9782C93.2914 17.978 93.2464 17.9777 93.1827 17.9536Z" fill="#0D2030"/>
<path d="M49.7754 28.5938C49.773 28.6056 49.7412 28.6175 49.6985 28.6116C49.6875 28.5937 49.7461 28.5938 49.7754 28.5938Z" fill="#0D2232"/>
<path d="M94.0048 13.7816C94.0216 13.68 94.0479 13.6146 94.0741 13.5492C94.1179 13.5975 94.1617 13.6457 94.2055 13.6939C94.1417 13.7352 94.0779 13.7764 94.0048 13.7816Z" fill="#0D2232"/>
<path d="M55.4829 52.7208C55.7191 52.6922 56.0061 52.6744 56.3282 52.6834C56.0867 52.7173 55.8102 52.7245 55.4829 52.7208Z" fill="#091B2A"/>
<path d="M57.356 52.7213C57.5181 52.6933 57.7292 52.6762 57.9721 52.6853C57.8043 52.7184 57.6046 52.7253 57.356 52.7213Z" fill="#091B2A"/>
<path d="M64.7173 52.7203C64.7105 52.6702 64.7408 52.6595 64.7909 52.6941C64.7833 52.7161 64.7646 52.7228 64.7173 52.7203Z" fill="#091B2A"/>
<path d="M37.6206 45.5863C38.402 46.5553 39.3388 47.3003 40.6114 47.5604C42.0067 47.8455 43.2758 47.5474 44.5036 46.7794C44.5689 46.7837 44.5824 46.7848 44.5959 46.786C44.589 46.7603 44.582 46.7346 44.575 46.7089C44.575 46.7089 44.5851 46.6982 44.6357 46.7113C44.9049 46.6987 45.1235 46.6729 45.3421 46.6471C45.3145 46.6933 45.2868 46.7395 45.2592 46.7856C45.4078 46.8937 45.5565 47.0018 45.7052 47.1099C44.4774 48.826 42.6909 49.202 40.7859 48.9336C38.7409 48.6455 37.2487 47.5213 36.6971 45.3519C36.8962 45.4767 37.0864 45.6213 37.299 45.7154C37.3729 45.7481 37.5022 45.6557 37.6206 45.5863Z" fill="#BCCFDD"/>
<path d="M45.7413 47.0935C45.5565 47.0018 45.4079 46.8937 45.2592 46.7856C45.2868 46.7394 45.3145 46.6933 45.3421 46.6471C45.1235 46.6729 44.9049 46.6987 44.6417 46.707C45.0771 46.0729 45.5571 45.4562 46.0767 44.7827C46.1312 44.6887 46.1462 44.6516 46.1612 44.6145C46.1612 44.6145 46.1592 44.5686 46.1717 44.5494C47.0491 44.6883 47.1589 44.8109 46.7977 45.5688C46.5395 46.1106 46.1231 46.577 45.7413 47.0935Z" fill="#C0D2DE"/>
<path d="M33.5067 50.701C33.3425 50.6819 33.1692 50.6216 33.0214 50.5343C33.1972 50.5581 33.3475 50.6089 33.5067 50.701Z" fill="#081929"/>
<path d="M86.6575 35.2106C86.6626 35.2078 86.6525 35.2133 86.6575 35.2106Z" fill="#0B1E2D"/>
<path d="M42.3705 42.0473C42.169 41.789 41.933 41.5712 41.8653 41.3098C41.7287 40.7818 41.8904 40.2929 42.3726 39.9957C42.8118 39.725 43.2697 39.7947 43.6735 40.105C44.1057 40.4373 44.2603 41.0268 44.0581 41.5138C43.8464 42.0238 43.455 42.2534 42.9096 42.1988C42.7412 42.1819 42.5779 42.1131 42.3705 42.0473Z" fill="#F6F8F9"/>
<path d="M44.5587 46.7135C44.582 46.7346 44.589 46.7603 44.5959 46.7859C44.5824 46.7848 44.569 46.7837 44.5427 46.7661C44.5299 46.7498 44.5424 46.7181 44.5587 46.7135Z" fill="#C0D2DE"/>
<path d="M46.1324 44.6296C46.1462 44.6516 46.1312 44.6887 46.0922 44.7441C46.0799 44.7232 46.0917 44.684 46.1324 44.6296Z" fill="#D3E2EC"/>
<path d="M81.3283 30.5876C81.318 30.5921 81.3075 30.5952 81.311 30.5919C81.325 30.5855 81.3279 30.5861 81.3283 30.5876Z" fill="#0C1F30"/>
<path d="M53.7416 69.2049C52.9912 69.6658 52.2786 70.106 51.5608 70.5375C50.9253 70.9196 50.5 70.6935 50.494 69.9597C50.484 68.7495 50.4858 67.5392 50.4948 66.329C50.5001 65.6261 50.9189 65.4073 51.5312 65.776C52.4826 66.3489 53.4319 66.9252 54.3821 67.5C55.1816 67.9835 55.1844 68.3714 54.3893 68.8379C54.1877 68.9562 53.9813 69.0664 53.7416 69.2049Z" fill="#FBFCFC"/>
</g>
<defs>
<clipPath id="clip0_20_2">
<rect width="120" height="120" fill="white"/>
</clipPath>
</defs>
</svg>
