<svg width="32" height="32" viewBox="0 0 32 32" fill="none" xmlns="http://www.w3.org/2000/svg">
<path d="M0.0161396 25.8883C0.00984512 25.816 0.0113225 25.7683 0.012167 25.6763C0.00811984 25.6038 0.00470356 25.5757 0.00128722 25.5476C0.0046249 25.4596 0.00796262 25.3715 0.0113668 25.2324C0.00803315 25.1135 0.00462695 25.0458 0.0012207 24.9781C0.00441131 24.6815 0.00760182 24.3848 0.0110363 24.0297C0.00763003 23.1264 0.00397593 22.2816 0.00549158 21.4159C0.00742444 21.3668 0.00418756 21.3386 0.00569918 21.2866C0.0147348 21.2148 0.0190218 21.1667 0.0501373 21.119C1.11265 21.3205 2.14433 21.5437 3.18515 21.7165C4.19335 21.8838 5.21095 21.9992 6.22423 22.1611C6.28839 22.3512 6.36166 22.515 6.41569 22.6845C6.84119 24.0196 7.75544 24.9769 8.98093 25.6737C9.88137 26.1857 10.8715 26.3629 11.9189 26.3114C13.1224 26.2522 14.1643 25.8031 15.035 25.0537C15.9261 24.2868 16.5644 23.3323 16.8827 22.1934C17.3655 22.1509 17.821 22.1139 18.2755 22.0681C18.9679 21.9983 19.6605 21.9285 20.3516 21.8474C21.1292 21.7562 21.9052 21.6524 22.6912 21.5793C22.7085 21.675 22.7166 21.7455 22.7246 21.816C22.7245 23.1956 22.7218 24.5753 22.7252 25.955C22.7286 27.3568 21.7865 28.5864 20.3843 28.9705C20.1035 29.0474 19.8013 29.0857 19.5089 29.0861C14.2162 29.0932 8.92344 29.086 3.63071 29.096C2.1371 29.0989 1.08007 28.4547 0.366217 27.184C0.327484 27.1221 0.307285 27.0922 0.287085 27.0623C0.19936 26.6792 0.111633 26.2961 0.0161396 25.8883Z" fill="#D3E2EC"></path>
<path d="M22.3359 30.6041C23.3792 30.5833 24.3948 30.6165 25.3983 30.5263C26.3832 30.4378 27.2738 30.0463 28.0643 29.4574C28.7599 28.9392 29.3454 28.3435 29.6812 27.5491C29.705 27.4929 29.7499 27.4448 29.8198 27.3414C30.2141 27.6019 30.6064 27.8434 30.9706 28.1188C31.0331 28.1661 31.0215 28.3816 30.9668 28.48C30.461 29.3907 29.8081 30.1892 28.9074 30.7725C28.0742 31.3121 27.1794 31.7304 26.1772 31.8961C25.8653 31.9476 25.5473 31.993 25.232 31.9933C18.8052 31.9989 12.3784 32.0065 5.9517 31.9899C4.66602 31.9866 3.49814 31.576 2.48874 30.7923C2.39495 30.7195 2.2986 30.6497 2.17444 30.5568C8.93174 30.6572 15.6175 30.584 22.3359 30.6041Z" fill="#D3E2EC"></path>
<path d="M31.9944 13.5954C31.9902 13.6631 31.986 13.7308 31.9821 13.8526C31.9871 14.7091 31.9918 15.5114 31.9903 16.3405C31.9892 16.4763 31.9941 16.5853 31.993 16.7177C31.9914 16.7883 31.9959 16.8357 31.9939 16.9122C31.9918 17.5969 31.9959 18.2525 32 18.9081C31.9937 19.3094 31.9874 19.7107 31.9461 20.1408C31.1589 20.3018 30.4083 20.4433 29.654 20.5637C28.8245 20.6961 27.9916 20.8091 27.1546 20.9025C27.1437 20.7034 27.1384 20.5324 27.1393 20.3324C27.1449 19.29 27.1442 18.2767 27.1495 17.237C27.1061 16.8919 27.2606 16.6526 27.4995 16.4354C27.5281 16.4132 27.5402 16.3954 27.5681 16.3733C27.6056 16.3596 27.6185 16.3436 27.6449 16.3162C29.0861 15.3383 30.5049 14.3654 31.95 13.3744C31.9705 13.4765 31.9825 13.536 31.9944 13.5954Z" fill="#FCFDFD"></path>
<path d="M27.1601 20.9306C27.9915 20.8091 28.8244 20.6961 29.654 20.5637C30.4083 20.4433 31.1589 20.3018 31.9399 20.1698C31.9687 22.4511 31.9687 24.7323 31.9687 27.0674C31.7973 26.9572 31.647 26.8651 31.5016 26.7665C30.2236 25.8993 28.9451 25.033 27.6713 24.1603C27.5221 24.0581 27.4003 23.9191 27.245 23.7628C27.1974 23.639 27.1707 23.5496 27.1475 23.4323C27.1456 23.2546 27.1401 23.1048 27.1408 22.9268C27.1434 22.7064 27.1399 22.5142 27.1363 22.322C27.1395 22.2275 27.1428 22.1329 27.145 22.0042C27.1439 21.97 27.1322 21.949 27.1363 21.9239C27.136 21.8315 27.1316 21.7642 27.1335 21.6731C27.1362 21.515 27.1325 21.3809 27.1357 21.2221C27.1397 21.1298 27.1369 21.0622 27.1404 20.9785C27.1511 20.9518 27.1556 20.9412 27.1601 20.9306Z" fill="#D3E2EC"></path>
<path d="M23.9746 17.7656C23.941 17.4345 24.0926 17.2862 24.4843 17.3325C24.5896 17.3302 24.6516 17.3272 24.7136 17.3243C25.0425 17.3476 25.3714 17.3708 25.7331 17.4236C25.7742 17.6406 25.7873 17.828 25.7902 18.0156C25.802 18.7767 25.8106 19.5379 25.8203 20.2991C25.8144 20.3271 25.8085 20.3552 25.8025 20.4307C25.8097 20.6297 25.817 20.7812 25.8243 20.9327C25.819 21.0426 25.8137 21.1525 25.7741 21.2876C25.3567 21.0613 24.9576 20.8289 24.5962 20.5514C24.3673 20.3757 24.1945 20.133 23.992 19.8909C23.9831 19.1628 23.9788 18.4642 23.9746 17.7656Z" fill="#FBFCFC"></path>
<path d="M23.9965 19.9203C24.1945 20.133 24.3673 20.3757 24.5962 20.5514C24.9576 20.8289 25.3567 21.0613 25.7654 21.3141C25.7911 21.9528 25.7911 22.5903 25.7911 23.2872C25.2351 23.2872 24.7134 23.2996 24.1938 23.2733C24.1193 23.2695 24.0056 23.0835 23.9954 22.9744C23.967 22.6719 23.9837 22.3655 23.978 22.0314C23.9767 21.3327 23.98 20.6633 23.9835 19.9608C23.9837 19.9278 23.9965 19.9203 23.9965 19.9203Z" fill="#D3E2EC"></path>
<path d="M11.3858 6.25921C11.3879 6.93847 11.39 7.61774 11.3547 8.3221C11.2005 8.32737 11.0749 8.32737 10.9684 8.28423C10.518 8.10184 10.0736 7.90585 9.62635 7.71632C9.22278 7.5453 8.81831 7.37622 8.40981 7.17859C8.37651 5.65277 7.15712 4.54262 5.59769 4.61128C4.38523 4.66466 3.07141 5.62157 3.01721 7.20676C2.91758 7.22093 2.83838 7.22421 2.76996 7.25191C1.87532 7.61406 0.982195 7.97967 0.0841317 8.33379C0.0698739 8.2955 0.0601732 8.26781 0.0504746 8.24013C0.0520184 8.22939 0.0535644 8.21865 0.044164 8.19548C0.0314763 8.17191 0.029739 8.16078 0.0256092 8.12213C0.0154812 7.67436 0.00773955 7.25409 0 6.83383C0.169977 3.80935 3.26944 1.42374 6.37084 1.81397C8.19442 2.04341 9.5558 2.9242 10.6029 4.38129C10.8293 4.82078 11.0326 5.22471 11.2358 5.62864C11.2375 5.6571 11.2393 5.68555 11.2497 5.75706C11.3009 5.95314 11.3433 6.10617 11.3858 6.25921Z" fill="#FBFCFC"></path>
<path d="M30.108 1.98688C30.3135 2.24695 30.5189 2.50702 30.7484 2.80051C30.94 3.0979 31.1075 3.36188 31.2751 3.62586C31.2751 3.62586 31.2756 3.62885 31.2764 3.63013C31.4823 4.21853 31.6874 4.80566 31.9014 5.44169C31.9379 5.70449 31.9654 5.91838 31.9929 6.13227C31.9896 6.16093 31.9862 6.18959 31.985 6.26842C31.9824 6.7833 31.9777 7.24801 31.9447 7.71276C31.4566 7.77566 30.9968 7.83849 30.537 7.90133C30.5333 7.50077 30.5156 7.09981 30.5281 6.69972C30.6142 3.95815 28.4727 1.84451 25.7901 1.47243C25.6927 1.45893 25.5931 1.46026 25.4453 1.45256C25.3665 1.45287 25.3369 1.4553 25.2772 1.45037C24.8261 1.44382 24.4051 1.44461 23.9565 1.43714C23.795 1.4344 23.6611 1.43992 23.4967 1.43839C22.7423 1.42987 22.0182 1.42536 21.2941 1.42759C19.8794 1.43194 18.4647 1.44005 17.0248 1.43871C16.9298 1.43605 16.86 1.4413 16.7598 1.43971C15.6033 1.43707 14.4773 1.44127 13.3251 1.43728C13.2079 1.43457 13.117 1.44003 12.9956 1.43887C12.1339 1.42911 11.3025 1.42997 10.4713 1.42037C10.2238 1.41751 9.97665 1.38532 9.72933 1.36657C8.75972 0.704317 7.67581 0.332486 6.49237 0.25988C5.97012 0.22784 5.44222 0.280391 4.92419 0.277537C5.42717 0.176068 5.92282 0.0916019 6.44892 0.0132792C7.82396 0.0114621 9.16856 0.0035022 10.5352 0.00153368C10.587 0.00333233 10.6169 -0.00086035 10.6773 0.000163435C15.5973 0.00555277 20.4869 0.00572644 25.4004 0.0173349C25.5842 0.0372159 25.7439 0.0456622 25.9299 0.0609722C26.5715 0.215845 27.187 0.363856 27.8121 0.527507C27.8696 0.555985 27.9174 0.568821 27.9789 0.598567C28.0443 0.639661 28.0959 0.663845 28.1592 0.694335C28.1708 0.700642 28.1975 0.699917 28.2075 0.718446C28.2585 0.748772 28.2995 0.760566 28.3511 0.791296C28.5762 0.928488 28.7906 1.04675 29.005 1.16501C29.005 1.16501 29.019 1.18943 29.0426 1.20819C29.1096 1.24522 29.153 1.26348 29.1965 1.28174C29.1986 1.30285 29.2101 1.31714 29.2535 1.34733C29.3379 1.40375 29.3995 1.43743 29.4611 1.47112C29.6606 1.65095 29.8602 1.83078 30.0832 1.99564C30.1066 1.98067 30.108 1.98688 30.108 1.98688Z" fill="#F6F8F9"></path>
<path d="M13.9486 6.70062C14.1281 6.69492 14.3075 6.68922 14.5451 6.67948C14.8767 6.67612 15.1502 6.67845 15.4237 6.67715C16.5386 6.67187 17.6536 6.66548 18.7685 6.6595C18.8402 6.66575 18.9118 6.67199 19.034 6.67799C19.1555 6.67701 19.2264 6.67627 19.3212 6.68477C19.5006 6.74433 19.6562 6.79464 19.8117 6.84495C19.8117 6.84495 19.82 6.83311 19.824 6.85628C19.9216 6.99333 20.0151 7.1072 20.1086 7.22107C20.2216 7.51288 20.2552 7.80146 20.0277 8.07904C19.7534 8.10397 19.5222 8.14938 19.2901 8.15436C18.7623 8.16569 18.234 8.15647 17.7058 8.15686C16.7816 8.15755 15.8534 8.11096 14.935 8.18167C14.5045 8.21481 14.3917 8.0592 14.2955 7.74902C14.1865 7.39767 14.0648 7.04993 13.9486 6.70062Z" fill="#FBFCFC"></path>
<path d="M13.9186 6.69358C14.0648 7.04993 14.1865 7.39767 14.2955 7.74902C14.3918 8.0592 14.5046 8.21481 14.9351 8.18167C15.8534 8.11096 16.7817 8.15755 17.7059 8.15686C18.234 8.15647 18.7623 8.16569 19.2902 8.15436C19.5223 8.14938 19.7534 8.10397 20.0058 8.08575C19.8811 8.30847 19.7256 8.47803 19.4098 8.45941C19.1377 8.44336 19.0365 8.68757 18.9048 8.91354C18.9029 8.98504 18.9049 9.01342 18.9068 9.0418C18.9029 9.10954 18.8989 9.17729 18.9007 9.27C18.9065 9.82789 18.9065 10.3608 18.9065 10.9435C18.5067 10.9435 18.1393 10.9435 17.7358 10.9285C17.6827 10.9198 17.6657 10.9259 17.6488 10.9321C17.5768 10.9356 17.5049 10.9391 17.3979 10.9239C17.3463 10.8917 17.328 10.881 17.3078 10.8732C17.2961 10.3271 17.2858 9.78094 17.2721 9.23486C17.2575 8.65195 17.0168 8.42551 16.3982 8.42354C15.3333 8.42014 14.2684 8.4226 13.1571 8.4226C13.1571 7.87033 13.1571 7.29862 13.1571 6.68654C13.3697 6.68654 13.6291 6.68654 13.9186 6.69358Z" fill="#CCDCE6"></path>
<path d="M30.5316 7.93075C30.9968 7.8385 31.4566 7.77566 31.9512 7.74173C31.9895 8.74006 31.993 9.70947 31.9965 10.6789C31.9928 10.8542 31.989 11.0294 31.9855 11.2535C31.9892 11.3499 31.9926 11.3974 31.996 11.445C31.9906 11.5302 31.9852 11.6155 31.9772 11.7264C31.9135 11.7841 31.8523 11.8163 31.7651 11.8766C31.5909 12.0073 31.4427 12.1098 31.2946 12.2123C31.2946 12.2123 31.2699 12.216 31.2449 12.2359C31.0092 12.4037 30.7986 12.5516 30.588 12.6995C30.5629 12.6934 30.5378 12.6874 30.5031 12.6641C30.5041 12.1815 30.5146 11.7162 30.5205 11.2215C30.5192 10.1149 30.5227 9.03751 30.5316 7.93075Z" fill="#D3E2EC"></path>
<path d="M13.2245 3.61169C14.1668 3.60758 15.1092 3.60347 16.0808 3.59388C16.5061 3.58849 16.8737 3.66414 17.1541 3.95976C17.4059 4.22509 17.5323 4.52137 17.3643 4.91895C17.2112 5.0233 17.0805 5.14377 16.9489 5.14468C15.904 5.15195 14.8589 5.1365 13.8134 5.10352C13.7222 4.86847 13.6267 4.65967 13.5419 4.44695C13.4316 4.17016 13.3299 3.89026 13.2245 3.61169Z" fill="#FBFCFC"></path>
<path d="M27.7641 7.3349C27.6142 7.39199 27.4648 7.46374 27.3119 7.47154C27.0077 7.48704 26.7014 7.45961 26.3965 7.46838C26.3314 7.47024 26.2689 7.55077 26.2035 7.64609C26.2066 7.74374 26.2114 7.79037 26.2161 7.83699C26.2167 8.00388 26.2014 8.17257 26.2216 8.33725C26.2561 8.61812 26.13 8.79601 25.8541 8.83716C25.576 8.87863 25.4773 8.68541 25.4361 8.43313C25.4314 8.10592 25.4314 7.80228 25.4314 7.47725C25.0791 7.47725 24.7321 7.47754 24.3851 7.47717C24.0487 7.47681 23.8697 7.34566 23.8593 7.09288C23.849 6.83977 24.0245 6.70684 24.3757 6.70537C24.7161 6.70395 25.0566 6.70506 25.442 6.70506C25.442 6.40257 25.4531 6.07162 25.4384 5.74171C25.427 5.48312 25.5141 5.28355 25.794 5.27414C26.0666 5.26497 26.1986 5.45933 26.2055 5.70986C26.2148 6.04512 26.2078 6.38079 26.2078 6.71268C26.6069 6.71268 26.9658 6.70327 27.3239 6.71515C27.7347 6.72879 27.8821 6.94154 27.7641 7.3349Z" fill="#F6F8F9"></path>
<path d="M13.1938 3.60623C13.3299 3.89026 13.4316 4.17016 13.5419 4.44695C13.6267 4.65967 13.7222 4.86847 13.787 5.11321C13.4716 5.16146 13.1821 5.17551 12.8926 5.18956C12.6138 4.67713 12.3351 4.1647 12.0474 3.63303C12.4133 3.60944 12.7883 3.6051 13.1938 3.60623Z" fill="#CCDCE6"></path>
<path d="M19.8258 12.3841C20.4929 12.4485 21.1003 12.6514 21.6272 13.095C21.7656 13.2205 21.8834 13.3394 22.0235 13.485C22.0616 13.5275 22.0772 13.5433 22.0929 13.5591C22.0929 13.5591 22.0976 13.5693 22.1118 13.5913C22.3092 14.029 22.4923 14.4446 22.6728 14.8867C22.6899 15.4014 22.7096 15.8897 22.7293 16.3779C22.7246 16.5074 22.7198 16.6368 22.7157 16.8222C22.7212 17.2384 22.7259 17.5986 22.7306 17.9587C22.7258 17.987 22.7211 18.0153 22.7163 18.093C22.7203 18.3974 22.7243 18.6524 22.7282 18.9074C22.7227 18.9752 22.7171 19.043 22.7117 19.1638C22.7158 19.451 22.7199 19.6852 22.7239 19.9194C22.7175 20.1324 22.711 20.3454 22.7048 20.6149C22.7104 20.9669 22.7159 21.2622 22.7213 21.5576C22.7213 21.5576 22.7017 21.5539 22.6918 21.554C21.9051 21.6525 21.1291 21.7562 20.3515 21.8474C19.6605 21.9285 18.9679 21.9983 18.2754 22.0681C17.8209 22.114 17.3654 22.1509 16.8527 22.1927C16.5963 22.1934 16.3975 22.1934 16.1983 22.1687C16.4373 21.4097 16.5076 20.6668 16.3345 19.9085C15.8847 17.9377 14.6272 16.6586 12.5956 16.2233C10.6475 15.8059 8.98541 16.4462 7.73359 17.9332C6.67 19.1967 6.47117 20.6455 6.89208 22.1922C6.64859 22.1748 6.43648 22.1561 6.22437 22.1375C5.2109 21.9992 4.1933 21.8838 3.1851 21.7165C2.14428 21.5437 1.1126 21.3205 0.0451265 21.0931C0.00899842 20.9794 0.00466103 20.8919 0.00553169 20.7833C0.00725902 20.7338 0.00377819 20.7054 0.00549541 20.6477C0.011415 19.4072 0.00801886 18.1959 0.0142428 16.9846C0.0187656 16.1047 -0.0561431 15.2182 0.221752 14.3578C0.378263 14.1087 0.534774 13.8595 0.730763 13.6144C1.37521 14.2488 2.06576 14.7653 2.85012 15.1872C4.1289 15.8751 5.50858 16.0047 6.90663 15.8332C8.61587 15.6235 10.0327 14.8132 11.1566 13.5654C11.4637 13.2243 11.8448 12.906 11.9056 12.4095C11.9545 12.4053 12.0034 12.4011 12.1064 12.3959C12.6028 12.39 13.0451 12.3852 13.516 12.3863C13.7005 12.3883 13.8563 12.3844 14.0413 12.3857C14.2283 12.3874 14.3862 12.3841 14.5716 12.3866C14.7117 12.3887 14.8243 12.385 14.9675 12.3864C16.2336 12.3881 17.4689 12.3846 18.7203 12.386C18.747 12.3874 18.7575 12.3837 18.7987 12.3849C19.1614 12.3878 19.4936 12.386 19.8258 12.3841Z" fill="#FCFDFD"></path>
<path d="M8.41416 7.20629C8.81824 7.37622 9.22271 7.5453 9.62628 7.71632C10.0735 7.90585 10.5179 8.10185 10.9683 8.28423C11.0748 8.32737 11.2004 8.32737 11.3444 8.34665C11.2793 9.06521 10.9956 9.71545 10.5655 10.3528C10.0932 10.8417 9.70162 11.3617 9.19936 11.7507C7.1612 13.3293 3.96322 13.229 2.0074 11.5527C1.62609 11.2259 1.2947 10.8457 0.940276 10.4901C0.783868 10.2031 0.627461 9.91621 0.448278 9.59207C0.343632 9.31969 0.261766 9.08452 0.174607 8.82576C0.15683 8.75565 0.14434 8.70912 0.13185 8.6626C0.126678 8.62746 0.121504 8.59233 0.102474 8.52124C0.088617 8.43832 0.0886211 8.39136 0.0886231 8.3444C0.982126 7.97967 1.87525 7.61406 2.76989 7.25191C2.83831 7.22421 2.91751 7.22093 3.02406 7.23262C3.19006 7.67854 3.3237 8.09816 3.44916 8.53618C3.38238 8.57362 3.30952 8.62351 3.26787 8.60586C3.14805 8.55508 3.04085 8.47702 2.92869 8.40969C3.23955 9.5804 4.08053 10.1871 5.23302 10.3425C6.30664 10.4874 7.31351 10.2845 8.02577 9.34952C8.24098 9.07082 8.47563 8.81912 8.62115 8.52675C8.82473 8.11773 8.76286 8.05159 8.27497 7.94145C8.3211 7.67989 8.36763 7.44309 8.41416 7.20629Z" fill="#D3E2EC"></path>
<path d="M1.01075 13.2408C1.13454 13.1426 1.24936 13.0637 1.36411 12.9847C4.40191 15.1427 8.01315 14.7284 10.3705 12.7866C10.7698 12.285 11.3216 12.3931 11.8751 12.4031C11.8448 12.906 11.4637 13.2243 11.1565 13.5654C10.0327 14.8132 8.61585 15.6235 6.90661 15.8332C5.50856 16.0047 4.12888 15.8751 2.8501 15.1872C2.06575 14.7653 1.37519 14.2488 0.752441 13.6054C0.823696 13.4816 0.912733 13.3709 1.01075 13.2408Z" fill="#C0D2DE"></path>
<path d="M6.22412 22.1611C6.43643 22.1562 6.64854 22.1748 6.90426 22.2098C7.17416 22.6434 7.35128 23.0947 7.63479 23.4728C9.38157 25.8026 12.8049 26.0618 14.9492 24.0587C15.5207 23.5248 15.8857 22.8787 16.1986 22.1934C16.3974 22.1934 16.5962 22.1935 16.8249 22.1942C16.5643 23.3323 15.926 24.2869 15.0349 25.0538C14.1641 25.8032 13.1223 26.2522 11.9188 26.3114C10.8714 26.3629 9.88127 26.1857 8.98083 25.6737C7.75534 24.9769 6.84108 24.0196 6.41558 22.6846C6.36156 22.5151 6.28828 22.3512 6.22412 22.1611Z" fill="#BCCFDD"></path>
<path d="M3.44918 8.53619C3.88954 9.0591 4.41748 9.46113 5.13472 9.60148C5.92104 9.75533 6.63631 9.59447 7.32829 9.18002C7.36509 9.18234 7.37269 9.18296 7.38029 9.18358C7.37637 9.16971 7.37245 9.15584 7.36853 9.14198C7.36853 9.14198 7.37422 9.13622 7.40272 9.14331C7.55442 9.13647 7.67762 9.12255 7.80083 9.10862C7.78525 9.13355 7.76966 9.15848 7.75409 9.18341C7.83788 9.24174 7.92167 9.30007 8.00547 9.35839C7.31353 10.2845 6.30665 10.4874 5.23304 10.3426C4.08054 10.1871 3.23957 9.58041 2.92871 8.4097C3.04087 8.47704 3.14807 8.5551 3.26789 8.60587C3.30954 8.62352 3.3824 8.57364 3.44918 8.53619Z" fill="#BCCFDD"></path>
<path d="M8.02585 9.34952C7.92173 9.30005 7.83794 9.24172 7.75414 9.18339C7.76972 9.15847 7.7853 9.13354 7.80088 9.10861C7.67768 9.12253 7.55448 9.13645 7.40613 9.14097C7.65151 8.79877 7.92204 8.46597 8.21487 8.10251C8.24561 8.05181 8.25406 8.03179 8.2625 8.01176C8.2625 8.01176 8.26137 7.987 8.26841 7.97661C8.76293 8.05158 8.82481 8.11772 8.62122 8.52675C8.4757 8.81912 8.24105 9.07082 8.02585 9.34952Z" fill="#C0D2DE"></path>
<path d="M6.12609 6.62638C6.01251 6.48702 5.87948 6.36946 5.84136 6.22838C5.76437 5.94344 5.85547 5.67964 6.12724 5.51926C6.37477 5.37317 6.63283 5.41077 6.86041 5.57826C7.10398 5.75753 7.19112 6.07565 7.07718 6.33848C6.95787 6.61367 6.73729 6.7376 6.42991 6.70813C6.33496 6.69903 6.24294 6.66187 6.12609 6.62638Z" fill="#F6F8F9"></path>
<path d="M12.5346 21.2818C12.1117 21.5306 11.7101 21.7681 11.3056 22.001C10.9474 22.2071 10.7078 22.0851 10.7044 21.6891C10.6987 21.0361 10.6997 20.3829 10.7048 19.7299C10.7078 19.3505 10.9439 19.2324 11.2889 19.4314C11.8251 19.7406 12.3601 20.0516 12.8956 20.3618C13.3462 20.6227 13.3478 20.832 12.8997 21.0838C12.7861 21.1476 12.6698 21.2071 12.5346 21.2818Z" fill="#FBFCFC"></path>
</svg>
